<svg xmlns="http://www.w3.org/2000/svg" width="330" height="135" viewBox="0 0 330 135">
    <g fill="none" fill-rule="evenodd">
        <path fill="#F9F9F9" d="M-517-308H849v768H-517z"/>
        <path fill="#989899" d="M14.4 10.04h70.4v16H31.2v31.84c4.32-5.76 13.76-10.56 24.16-10.56C84 47.32 92.8 68.6 92.8 86.2c0 23.2-13.28 40.8-40.32 40.8-24 0-37.92-13.28-40.64-31.52H29.6c2.4 9.92 10.72 16.32 23.04 16.32 15.68 0 22.72-10.72 22.72-25.12 0-15.2-7.52-23.84-22.72-23.84-10.72 0-17.92 5.92-20.96 14.56H14.4V10.04zM239.6 67.16c0-33.28 8.96-58.88 41.6-58.88s41.6 25.6 41.6 58.88c0 33.92-8.96 59.52-41.6 59.52s-41.6-25.6-41.6-59.52zm65.28 0c0-21.76-2.4-42.24-23.68-42.24s-23.68 20.48-23.68 42.24c0 22.88 2.4 42.88 23.68 42.88s23.68-20 23.68-42.88z"/>
        <g fill="#000" opacity=".396">
            <path d="M180.172 101.15c.732-.947 1.097-2.275 1.097-3.98v-6.74h-9.715v6.74c0 1.705.396 3.033 1.187 3.98.79.947 2.044 1.42 3.76 1.42 1.716 0 2.94-.473 3.671-1.42zm-11.886 5.707c-1.612-2.095-2.418-5.087-2.418-8.975V90.43H144V83h43v15.367c0 3.543-.85 6.367-2.552 8.473-1.701 2.107-4.335 3.16-7.902 3.16-3.895 0-6.648-1.048-8.26-3.143z"/>
            <path d="M139.997 30.091h72.232v-5.64h-72.232v5.64zm-21.384 85.458h93.616V41.543h-93.616v74.006zm2.608-91.232c1.45 0 2.624 1.268 2.624 2.831 0 1.564-1.175 2.831-2.624 2.831s-2.624-1.267-2.624-2.83c0-1.564 1.175-2.832 2.624-2.832zm10.771 0c1.45 0 2.624 1.268 2.624 2.831 0 1.564-1.175 2.831-2.624 2.831s-2.623-1.267-2.623-2.83c0-1.564 1.174-2.832 2.623-2.832zM113.348 13c-2.936 0-5.348 2.483-5.348 5.652v102.665c0 3.168 2.412 5.683 5.348 5.683h104.27c2.937 0 5.382-2.515 5.382-5.683V18.652c0-3.17-2.445-5.652-5.383-5.652H113.348z"/>
            <path d="M153 66.4l-6.6-6.903 6.599-6.9L148.597 48l-6.599 6.9L135.4 48l-4.4 4.596 6.6 6.904-6.6 6.9 4.4 4.6 6.598-6.9L148.6 71zM200 66.4l-6.6-6.903 6.599-6.9L195.597 48l-6.599 6.9L182.4 48l-4.4 4.596 6.6 6.904-6.6 6.9 4.4 4.6 6.598-6.9L195.6 71z"/>
        </g>
    </g>
</svg>
