<svg xmlns="http://www.w3.org/2000/svg" xmlns:xlink="http://www.w3.org/1999/xlink" width="330" height="135" viewBox="0 0 330 135">
    <defs>
        <path id="b" d="M13.043 41.909c-.02-.91.006-15.817.076-16.717a27.2 27.2 0 0 1 7.66-16.893A27.181 27.181 0 0 1 40.206.123 27.162 27.162 0 0 1 59.633 8.3a27.157 27.157 0 0 1 7.607 16.279c.11 1.1.154 16.213.129 17.33"/>
        <filter id="a" width="145.9%" height="159.7%" x="-22.9%" y="-25.1%" filterUnits="objectBoundingBox">
            <feMorphology in="SourceAlpha" operator="dilate" radius="5.468" result="shadowSpreadOuter1"/>
            <feOffset dy="2" in="shadowSpreadOuter1" result="shadowOffsetOuter1"/>
            <feMorphology in="SourceAlpha" radius="5.468" result="shadowInner"/>
            <feOffset dy="2" in="shadowInner" result="shadowInner"/>
            <feComposite in="shadowOffsetOuter1" in2="shadowInner" operator="out" result="shadowOffsetOuter1"/>
            <feGaussianBlur in="shadowOffsetOuter1" result="shadowBlurOuter1" stdDeviation="2"/>
            <feColorMatrix in="shadowBlurOuter1" values="0 0 0 0 0 0 0 0 0 0 0 0 0 0 0 0 0 0 0.5 0"/>
        </filter>
        <filter id="c" width="142.2%" height="154.9%" x="-21.1%" y="-22.7%" filterUnits="objectBoundingBox">
            <feGaussianBlur in="SourceAlpha" result="shadowBlurInner1" stdDeviation="1.5"/>
            <feOffset dy="1" in="shadowBlurInner1" result="shadowOffsetInner1"/>
            <feComposite in="shadowOffsetInner1" in2="SourceAlpha" k2="-1" k3="1" operator="arithmetic" result="shadowInnerInner1"/>
            <feColorMatrix in="shadowInnerInner1" values="0 0 0 0 0 0 0 0 0 0 0 0 0 0 0 0 0 0 0.5 0"/>
        </filter>
        <path id="e" d="M3.903 45.55H76.5c1.933 0 3.497 1.933 3.497 3.498v56.473a3.496 3.496 0 0 1-3.497 3.497H3.903c-1.933 0-3.497-1.933-3.497-3.497V49.048a3.496 3.496 0 0 1 3.497-3.498z"/>
        <filter id="d" width="131.3%" height="139.3%" x="-15.7%" y="-16.5%" filterUnits="objectBoundingBox">
            <feMorphology in="SourceAlpha" operator="dilate" radius="5.468" result="shadowSpreadOuter1"/>
            <feOffset dy="2" in="shadowSpreadOuter1" result="shadowOffsetOuter1"/>
            <feMorphology in="SourceAlpha" radius="5.468" result="shadowInner"/>
            <feOffset dy="2" in="shadowInner" result="shadowInner"/>
            <feComposite in="shadowOffsetOuter1" in2="shadowInner" operator="out" result="shadowOffsetOuter1"/>
            <feGaussianBlur in="shadowOffsetOuter1" result="shadowBlurOuter1" stdDeviation="2"/>
            <feColorMatrix in="shadowBlurOuter1" values="0 0 0 0 0 0 0 0 0 0 0 0 0 0 0 0 0 0 0.5 0"/>
        </filter>
        <filter id="f" width="128.8%" height="136.1%" x="-14.4%" y="-14.9%" filterUnits="objectBoundingBox">
            <feGaussianBlur in="SourceAlpha" result="shadowBlurInner1" stdDeviation="1.5"/>
            <feOffset dy="1" in="shadowBlurInner1" result="shadowOffsetInner1"/>
            <feComposite in="shadowOffsetInner1" in2="SourceAlpha" k2="-1" k3="1" operator="arithmetic" result="shadowInnerInner1"/>
            <feColorMatrix in="shadowInnerInner1" values="0 0 0 0 0 0 0 0 0 0 0 0 0 0 0 0 0 0 0.5 0"/>
        </filter>
        <path id="h" d="M40.2 80.985v9.759-9.76c-1.845.001-3.69-1.23-3.69-3.692 0-4.924 7.379-4.924 7.379 0 0 2.462-1.845 3.693-3.689 3.693z"/>
        <filter id="g" width="438%" height="245.4%" x="-169%" y="-61.1%" filterUnits="objectBoundingBox">
            <feMorphology in="SourceAlpha" operator="dilate" radius="5.468" result="shadowSpreadOuter1"/>
            <feOffset dy="2" in="shadowSpreadOuter1" result="shadowOffsetOuter1"/>
            <feGaussianBlur in="shadowOffsetOuter1" result="shadowBlurOuter1" stdDeviation="2"/>
            <feComposite in="shadowBlurOuter1" in2="SourceAlpha" operator="out" result="shadowBlurOuter1"/>
            <feColorMatrix in="shadowBlurOuter1" values="0 0 0 0 0 0 0 0 0 0 0 0 0 0 0 0 0 0 0.5 0"/>
        </filter>
        <filter id="i" width="410.9%" height="233.8%" x="-155.4%" y="-55.2%" filterUnits="objectBoundingBox">
            <feGaussianBlur in="SourceAlpha" result="shadowBlurInner1" stdDeviation="1.5"/>
            <feOffset dy="1" in="shadowBlurInner1" result="shadowOffsetInner1"/>
            <feComposite in="shadowOffsetInner1" in2="SourceAlpha" k2="-1" k3="1" operator="arithmetic" result="shadowInnerInner1"/>
            <feColorMatrix in="shadowInnerInner1" values="0 0 0 0 0 0 0 0 0 0 0 0 0 0 0 0 0 0 0.5 0"/>
        </filter>
    </defs>
    <g fill="none" fill-rule="evenodd">
        <path fill="#F9F9F9" d="M-517-308H849v768H-517z"/>
        <path fill="#989899" d="M278.632 127.8V25.3H263.38V8.244h34.112V127.8z"/>
        <g stroke-linecap="round" opacity=".701">
            <g transform="translate(143 14)">
                <use fill="#000" filter="url(#a)" xlink:href="#b"/>
                <use fill="#000" filter="url(#c)" xlink:href="#b"/>
                <use stroke="#676767" stroke-width="10.937" xlink:href="#b"/>
            </g>
            <g transform="translate(143 14)">
                <use fill="#000" filter="url(#d)" xlink:href="#e"/>
                <use fill="#000" filter="url(#f)" xlink:href="#e"/>
                <use stroke="#676767" stroke-width="10.937" xlink:href="#e"/>
            </g>
            <g fill-rule="nonzero" transform="translate(143 14)">
                <use fill="#000" filter="url(#g)" xlink:href="#h"/>
                <use fill="#000" fill-opacity=".503" xlink:href="#h"/>
                <use fill="#000" filter="url(#i)" xlink:href="#h"/>
                <use stroke="#676767" stroke-width="10.937" xlink:href="#h"/>
            </g>
        </g>
        <path fill="#989899" d="M84.28 125.68v-24.32H26.36V87.6l53.76-77.12h22.08v75.04h14.88v15.84H102.2v24.32H84.28zM47.32 85.52h37.76V29.04L47.32 85.52z"/>
    </g>
</svg>
