<?xml version="1.0" encoding="UTF-8"?>
<svg width="20px" height="16px" viewBox="0 0 20 16" version="1.1" xmlns="http://www.w3.org/2000/svg" xmlns:xlink="http://www.w3.org/1999/xlink">
    <!-- Generator: Sketch 50.2 (55047) - http://www.bohemiancoding.com/sketch -->
    <title>delivery</title>
    <desc>Created with Sketch.</desc>
    <defs></defs>
    <g id="Tracking" stroke="none" stroke-width="1" fill="none" fill-rule="evenodd">
        <g id="03_Tracking-Details_03" transform="translate(-563.000000, -523.000000)" fill-rule="nonzero">
            <g id="Group-4" transform="translate(503.000000, 183.000000)">
                <g id="Group-12" transform="translate(10.000000, 206.000000)">
                    <g id="delivery" transform="translate(50.000000, 134.000000)">
                        <path d="M19.7595652,7.87173913 L18.1991304,7.09173913 L17.3782609,3.8073913 C17.33,3.61391304 17.156087,3.47826087 16.9565217,3.47826087 L12.6086957,3.47826087 C12.3686957,3.47826087 12.173913,3.67304348 12.173913,3.91304348 L12.173913,10.8695652 L0,10.8695652 L0,11.3043478 C0,11.7847826 0.389130435,12.173913 0.869565217,12.173913 L19.5652174,12.173913 C19.8052174,12.173913 20,11.9791304 20,11.7391304 L20,8.26086957 C20,8.09608696 19.9069565,7.94565217 19.7595652,7.87173913 Z" id="Shape" fill="#3A3B3C"></path>
                        <polygon id="Shape" fill="#F9E87C" points="17.3778261 7.39130435 16.6169565 4.34782609 13.9130435 4.34782609 13.9130435 7.39130435"></polygon>
                        <path d="M0,0.869565217 L0,10.8695652 L13.0434783,10.8695652 L13.0434783,0.869565217 C13.0434783,0.389130435 12.6543478,0 12.173913,0 L0.869565217,0 C0.389130435,0 0,0.389130435 0,0.869565217 Z" id="Shape" fill="#F9E87C"></path>
                        <path d="M15.6521739,15.2173913 C14.2134783,15.2173913 13.0434783,14.0473913 13.0434783,12.6086957 C13.0434783,11.17 14.2134783,10 15.6521739,10 C17.0908696,10 18.2608696,11.17 18.2608696,12.6086957 C18.2608696,14.0473913 17.0908696,15.2173913 15.6521739,15.2173913 Z" id="Shape" fill="#3A3B3C"></path>
                        <path d="M15.6521739,13.9130435 C14.9330435,13.9130435 14.3478261,13.3278261 14.3478261,12.6086957 C14.3478261,11.8895652 14.9330435,11.3043478 15.6521739,11.3043478 C16.3713043,11.3043478 16.9565217,11.8895652 16.9565217,12.6086957 C16.9565217,13.3278261 16.3713043,13.9130435 15.6521739,13.9130435 Z" id="Shape" fill="#DEDEDF"></path>
                        <path d="M3.91304348,15.2173913 C2.47434783,15.2173913 1.30434783,14.0473913 1.30434783,12.6086957 C1.30434783,11.17 2.47434783,10 3.91304348,10 C5.35173913,10 6.52173913,11.17 6.52173913,12.6086957 C6.52173913,14.0473913 5.35173913,15.2173913 3.91304348,15.2173913 Z" id="Shape" fill="#3A3B3C"></path>
                        <path d="M3.91304348,13.9130435 C3.19391304,13.9130435 2.60869565,13.3278261 2.60869565,12.6086957 C2.60869565,11.8895652 3.19391304,11.3043478 3.91304348,11.3043478 C4.63217391,11.3043478 5.2173913,11.8895652 5.2173913,12.6086957 C5.2173913,13.3278261 4.63217391,13.9130435 3.91304348,13.9130435 Z" id="Shape" fill="#DEDEDF"></path>
                        <path d="M20,11.3043478 L19.5652174,11.3043478 C19.3252174,11.3043478 19.1304348,11.1095652 19.1304348,10.8695652 L19.1304348,10 C19.1304348,9.76 19.3252174,9.56521739 19.5652174,9.56521739 L20,9.56521739 L20,11.3043478 Z" id="Shape" fill="#F9E87C"></path>
                    </g>
                </g>
            </g>
        </g>
    </g>
</svg>