<?xml version="1.0" encoding="UTF-8"?>
<svg width="22px" height="20px" viewBox="0 0 22 20" version="1.1" xmlns="http://www.w3.org/2000/svg" xmlns:xlink="http://www.w3.org/1999/xlink">
    <!-- Generator: Sketch 50.2 (55047) - http://www.bohemiancoding.com/sketch -->
    <title>boat</title>
    <desc>Created with Sketch.</desc>
    <defs></defs>
    <g id="Symbols" stroke="none" stroke-width="1" fill="none" fill-rule="evenodd">
        <g id="Load-Card_Late" transform="translate(-303.000000, -15.000000)" stroke="#9A9B9D" stroke-width="1.5">
            <g id="Group-6">
                <g id="style" transform="translate(51.000000, 6.000000)">
                    <g id="Group-10">
                        <g id="Group" transform="translate(145.500000, 0.000000)">
                            <g id="boat" transform="translate(107.500000, 10.000000)">
                                <polyline id="Shape" stroke-linecap="square" points="4.54545455 4.54545455 4.54545455 0 8.18181818 0 8.18181818 4.54545455"></polyline>
                                <polyline id="Shape" points="2.72727273 8.18181818 2.72727273 4.54545455 13.6363636 4.54545455 15.4545455 8.18181818"></polyline>
                                <polyline id="Shape" stroke-linecap="square" points="2.72727273 13.6363636 0.909090909 8.18181818 19.0909091 8.18181818 16.3636364 13.6363636"></polyline>
                                <path d="M0,14.5454545 C0,16.5454545 1.63636364,18.1818182 3.63636364,18.1818182 C5,18.1818182 6.18181818,17.3636364 6.81818182,16.2727273 C7.45454545,17.3636364 8.63636364,18.1818182 10,18.1818182 C11.3636364,18.1818182 12.5454545,17.3636364 13.1818182,16.2727273 C13.8181818,17.3636364 15,18.1818182 16.3636364,18.1818182 C18.3636364,18.1818182 20,16.5454545 20,14.5454545" id="Shape" stroke-linecap="square"></path>
                            </g>
                        </g>
                    </g>
                </g>
            </g>
        </g>
    </g>
</svg>