<?xml version="1.0" encoding="UTF-8"?>
<svg width="512px" height="504px" viewBox="0 0 512 504" version="1.1" xmlns="http://www.w3.org/2000/svg" xmlns:xlink="http://www.w3.org/1999/xlink">
    <!-- Generator: Sketch 50.2 (55047) - http://www.bohemiancoding.com/sketch -->
    <title>Shape</title>
    <desc>Created with Sketch.</desc>
    <defs></defs>
    <g id="Page-1" stroke="none" stroke-width="1" fill="none" fill-rule="evenodd">
        <g id="cube-light" fill="#9A9B9D" fill-rule="nonzero">
            <path d="M239.1,3.3 L31.1,81.3 C12.4,88.3 -7.10542736e-15,106.3 -7.10542736e-15,126.3 L-7.10542736e-15,351.4 C-7.10542736e-15,369.6 10.3,386.2 26.5,394.3 L234.5,498.3 C248,505.1 263.9,505.1 277.4,498.3 L485.4,394.3 C501.7,386.2 511.9,369.5 511.9,351.4 L511.9,126.3 C511.9,106.3 499.5,88.4 480.8,81.4 L272.8,3.4 C262,-0.8 250,-0.8 239.1,3.3 Z M256,31.2 L480,115.2 L480,115.5 L256,212.6 L32,115.5 L32,115.2 L256,31.2 Z M32,150.4 L240,240.5 L240,465.2 L32,361.2 L32,150.4 Z M272,465.2 L272,240.5 L480,150.4 L480,361.3 L272,465.2 Z" id="Shape"></path>
        </g>
    </g>
</svg>