<?xml version="1.0" encoding="UTF-8"?>
<svg width="22px" height="23px" viewBox="0 0 22 23" version="1.1" xmlns="http://www.w3.org/2000/svg" xmlns:xlink="http://www.w3.org/1999/xlink">
    <!-- Generator: Sketch 50.2 (55047) - http://www.bohemiancoding.com/sketch -->
    <title>temperature-23</title>
    <desc>Created with Sketch.</desc>
    <defs></defs>
    <g id="Page-1" stroke="none" stroke-width="1" fill="none" fill-rule="evenodd">
        <g id="temperature-23" fill-rule="nonzero">
            <path d="M2.5,2 L0.5,2 C0.224,2 0,1.776 0,1.5 C0,1.224 0.224,1 0.5,1 L2.5,1 C2.776,1 3,1.224 3,1.5 C3,1.776 2.776,2 2.5,2 Z" id="Shape" fill="#B3B3B3"></path>
            <path d="M2.5,6 L0.5,6 C0.224,6 0,5.776 0,5.5 C0,5.224 0.224,5 0.5,5 L2.5,5 C2.776,5 3,5.224 3,5.5 C3,5.776 2.776,6 2.5,6 Z" id="Shape" fill="#B3B3B3"></path>
            <path d="M2.5,10 L0.5,10 C0.224,10 0,9.776 0,9.5 C0,9.224 0.224,9 0.5,9 L2.5,9 C2.776,9 3,9.224 3,9.5 C3,9.776 2.776,10 2.5,10 Z" id="Shape" fill="#B3B3B3"></path>
            <path d="M13,11.0205 L13,3.5 C13,1.57 11.43,0 9.5,0 C7.57,0 6,1.57 6,3.5 L6,11.02 C4.1155,12.229 3,14.2565 3,16.5 C3,20.084 5.916,23 9.5,23 C13.084,23 16,20.084 16,16.5 C16,14.2915 14.8575,12.2185 13,11.0205 Z" id="Shape" fill="#DEDEDF"></path>
            <path d="M10.5,15.5 L8.5,15.5 L8.5,4.25 C8.5,3.836 8.724,3.5 9,3.5 L10,3.5 C10.276,3.5 10.5,3.836 10.5,4.25 L10.5,15.5 Z" id="Shape" fill="#58595B"></path>
            <circle id="Oval" fill="#58595B" cx="9.5" cy="16.5" r="3.5"></circle>
            <circle id="Oval-2" fill="#F07467" cx="18.5" cy="3.5" r="3.5"></circle>
        </g>
    </g>
</svg>